<svg width="512" height="512" viewBox="0 0 512 512" fill="none" xmlns="http://www.w3.org/2000/svg">
    <path d="M10.7998 507.9C17.6998 487.2 24.1998 467.8 30.6998 448.4C37.1998 429.2 42.9998 409.7 50.3998 390.8C54.1998 381.2 52.9998 374 48.1998 365C21.9998 316.4 14.1998 264.3 23.2998 210.1C30.9998 164.2 50.4998 123.6 81.9998 89.1002C133.9 32.4002 198.7 5.20022 275.3 8.40022C331.4 10.7002 381 31.2002 423.3 68.3002C462.7 102.8 488.4 145.7 500.3 196.7C509.9 237.8 508.8 278.7 497 319.2C482 370.5 453.3 412.8 410.6 445C351.3 489.8 284.8 503.7 212.3 489.6C190.5 485.4 169.7 477.6 150.1 467C146.9 465.3 144.2 464.9 140.7 466.1C103.5 478.1 66.1998 490 28.9998 501.9C23.3998 503.7 17.6998 505.6 10.7998 507.9ZM74.0998 445.2C76.0998 444.7 76.9998 444.5 77.8998 444.2C101.2 436.8 124.5 429.3 147.9 422.1C150.1 421.4 153.1 422 155.2 423C165.3 428 175 434 185.4 438.4C228.2 456.5 272.3 459.4 316.9 447C370.1 432.1 410.9 400.4 438.8 352.5C462.7 311.5 470.9 267.2 463.5 220.6C454.1 161.3 423.7 114.7 373.4 81.6002C329.8 53.0002 281.8 43.3002 230.6 51.4002C186.5 58.4002 148.8 78.5002 117.7 110.7C90.9998 138.3 73.0998 170.9 65.2998 208.4C54.1998 262.1 62.3998 312.9 92.1998 359.2C98.1998 368.5 97.9998 375.6 94.3998 385.1C87.0998 404.6 80.9998 424.5 74.0998 445.2Z" fill="white"/>
    <path d="M389.3 321.8C389 341.1 379.9 355.8 361.5 365C343.4 374 325 376.3 306.1 368.9C289.1 362.2 271.9 355.7 255.5 347.6C233.9 336.9 216.2 320.9 200 303.2C182.1 283.6 166.9 261.8 154.4 238.5C145.5 222 140.1 204.5 142 185.3C144 164.9 153.5 148.6 169.5 136.3C172.7 133.9 177.5 132.8 181.6 132.4C186.9 132 192.2 132.8 197.5 133.2C201.9 133.6 204.3 136.7 205.8 140.3C209.7 149.9 213.2 159.5 216.9 169.2C219.4 175.7 221.3 182.5 224.3 188.8C228 196.6 225.7 203.1 220.9 209.1C216.8 214.2 212.5 219.1 207.8 223.5C203.9 227.2 203.2 231 205.8 235.5C217.3 256 231.3 274.4 249.8 289.3C262 299.1 275.5 306.4 289.5 313.2C293.6 315.2 297.6 314.9 300.8 311.2C307.7 303.3 314.7 295.5 321.5 287.5C325.9 282.4 328.1 281.4 334 284.4C351.1 293 368 301.9 385 310.8C389 313 390 316.6 389.3 321.8Z" fill="white"/>
</svg>
